<?xml version="1.0" encoding="UTF-8" standalone="no"?><!DOCTYPE svg PUBLIC "-//W3C//DTD SVG 1.1//EN" "http://www.w3.org/Graphics/SVG/1.1/DTD/svg11.dtd"><!-- Generated by graphviz version 2.40.1 (20161225.0304)
 --><!-- Title: G Pages: 1 --><svg xmlns="http://www.w3.org/2000/svg" xmlns:xlink="http://www.w3.org/1999/xlink" width="199pt" height="299pt" viewBox="0.00 0.00 199.00 299.00">
<g id="graph0" class="graph" transform="scale(1 1) rotate(0) translate(4 295)">
<title>G</title>
<polygon fill="#ffffff" stroke="transparent" points="-4,4 -4,-295 195,-295 195,4 -4,4"/>
<g id="clust1" class="cluster">
<title>cluster_legend__</title>
<polygon fill="none" stroke="#000000" points="8,-8 8,-283 183,-283 183,-8 8,-8"/>
<text text-anchor="middle" x="95.5" y="-266.4" font-family="Times,serif" font-size="14.00" fill="#000000">Legend</text>
</g>
<!-- key -->
<g id="node1" class="node">
<title>key</title>
<text text-anchor="start" x="28.578" y="-235" font-family="Times,serif" font-size="10.00" fill="#000000">remove call</text>
<text text-anchor="start" x="36.349" y="-219" font-family="Times,serif" font-size="10.00" fill="#000000">insert call</text>
<text text-anchor="start" x="26.4355" y="-203" font-family="Times,serif" font-size="10.00" fill="#000000">affected call</text>
<text text-anchor="start" x="32.183" y="-187" font-family="Times,serif" font-size="10.00" fill="#000000">unchanged</text>
</g>
<!-- key2 -->
<g id="node2" class="node">
<title>key2</title>
<text text-anchor="start" x="145.5855" y="-235" font-family="Times,serif" font-size="10.00" fill="#000000"> </text>
<text text-anchor="start" x="145.5855" y="-219" font-family="Times,serif" font-size="10.00" fill="#000000"> </text>
<text text-anchor="start" x="145.5855" y="-203" font-family="Times,serif" font-size="10.00" fill="#000000"> </text>
<text text-anchor="start" x="145.5855" y="-187" font-family="Times,serif" font-size="10.00" fill="#000000"> </text>
</g>
<!-- key&#45;&gt;key2 -->
<g id="edge1" class="edge">
<title>key:e-&gt;key2:w</title>
<path fill="none" stroke="#b85450" stroke-dasharray="5,2" d="M77.5,-238C103.3611,-238 112.2509,-238 133.8691,-238"/>
<polygon fill="#b85450" stroke="#b85450" points="134,-241.5001 144,-238 134,-234.5001 134,-241.5001"/>
</g>
<!-- key&#45;&gt;key2 -->
<g id="edge2" class="edge">
<title>key:e-&gt;key2:w</title>
<path fill="none" stroke="#82b366" d="M77.5,-222C103.3611,-222 112.2509,-222 133.8691,-222"/>
<polygon fill="#82b366" stroke="#82b366" points="134,-225.5001 144,-222 134,-218.5001 134,-225.5001"/>
</g>
<!-- key&#45;&gt;key2 -->
<g id="edge3" class="edge">
<title>key:e-&gt;key2:w</title>
<path fill="none" stroke="#d7b953" d="M77.5,-206C103.3611,-206 112.2509,-206 133.8691,-206"/>
<polygon fill="#d7b953" stroke="#d7b953" points="134,-209.5001 144,-206 134,-202.5001 134,-209.5001"/>
</g>
<!-- key&#45;&gt;key2 -->
<g id="edge4" class="edge">
<title>key:e-&gt;key2:w</title>
<path fill="none" stroke="#000000" d="M77.5,-190C103.3611,-190 112.2509,-190 133.8691,-190"/>
<polygon fill="#000000" stroke="#000000" points="134,-193.5001 144,-190 134,-186.5001 134,-193.5001"/>
</g>
<!-- legend_affected_api__ -->
<g id="node3" class="node">
<title>legend_affected_api__</title>
<ellipse fill="#fff2cd" stroke="#d7b953" cx="50.5" cy="-142" rx="27" ry="18"/>
<text text-anchor="middle" x="50.5" y="-143.8" font-family="Times,serif" font-size="6.00" fill="#000000">affected</text>
<text text-anchor="middle" x="50.5" y="-136.6" font-family="Times,serif" font-size="6.00" fill="#000000">api</text>
</g>
<!-- legend_changed_api__ -->
<g id="node4" class="node">
<title>legend_changed_api__</title>
<ellipse fill="#ffe6cc" stroke="#d79b00" cx="148" cy="-142" rx="27" ry="18"/>
<text text-anchor="middle" x="148" y="-143.8" font-family="Times,serif" font-size="6.00" fill="#000000">unchanged</text>
<text text-anchor="middle" x="148" y="-136.6" font-family="Times,serif" font-size="6.00" fill="#000000">api</text>
</g>
<!-- legend_affected_api__&#45;&gt;legend_changed_api__ -->
<!-- legend_new_api__ -->
<g id="node5" class="node">
<title>legend_new_api__</title>
<ellipse fill="#d5e8d4" stroke="#82b366" cx="148" cy="-88" rx="27" ry="18"/>
<text text-anchor="middle" x="148" y="-89.8" font-family="Times,serif" font-size="6.00" fill="#000000">inserted</text>
<text text-anchor="middle" x="148" y="-82.6" font-family="Times,serif" font-size="6.00" fill="#000000">api</text>
</g>
<!-- legend_removed_api__ -->
<g id="node6" class="node">
<title>legend_removed_api__</title>
<ellipse fill="#f8cecc" stroke="#b85450" cx="50.5" cy="-88" rx="27" ry="18"/>
<text text-anchor="middle" x="50.5" y="-89.8" font-family="Times,serif" font-size="6.00" fill="#000000">removed</text>
<text text-anchor="middle" x="50.5" y="-82.6" font-family="Times,serif" font-size="6.00" fill="#000000">api</text>
</g>
<!-- legend_removed_api__&#45;&gt;legend_new_api__ -->
<!-- legend_unchanged_api__ -->
<g id="node7" class="node">
<title>legend_unchanged_api__</title>
<ellipse fill="#dae8fc" stroke="#000000" cx="50.5" cy="-34" rx="27" ry="18"/>
<text text-anchor="middle" x="50.5" y="-35.8" font-family="Times,serif" font-size="6.00" fill="#000000">unchanged</text>
<text text-anchor="middle" x="50.5" y="-28.6" font-family="Times,serif" font-size="6.00" fill="#000000">api</text>
</g>
</g>
</svg>