<?xml version="1.0" encoding="UTF-8" standalone="no"?>
<!DOCTYPE svg PUBLIC "-//W3C//DTD SVG 1.1//EN"
 "http://www.w3.org/Graphics/SVG/1.1/DTD/svg11.dtd">
<!-- Generated by graphviz version 2.40.1 (20161225.0304)
 -->
<!-- Title: G Pages: 1 -->
<svg width="2225pt" height="904pt"
 viewBox="0.00 0.00 2224.82 904.00" xmlns="http://www.w3.org/2000/svg" xmlns:xlink="http://www.w3.org/1999/xlink">
<g id="graph0" class="graph" transform="scale(1 1) rotate(0) translate(4 900)">
<title>G</title>
<polygon fill="#ffffff" stroke="transparent" points="-4,4 -4,-900 2220.8189,-900 2220.8189,4 -4,4"/>
<g id="clust1" class="cluster">
<title>cluster_github_com__dragonflyoss__Dragonfly__pkg__errortypes</title>
<polygon fill="none" stroke="#000000" points="483.402,-268 483.402,-358 873.6869,-358 873.6869,-268 483.402,-268"/>
<text text-anchor="middle" x="678.5444" y="-342.8" font-family="Times,serif" font-size="14.00" fill="#000000">errortypes</text>
<text text-anchor="middle" x="678.5444" y="-327.8" font-family="Times,serif" font-size="14.00" fill="#000000">(github.com/dragonflyoss/Dragonfly/pkg/errortypes)</text>
</g>
<g id="clust2" class="cluster">
<title>cluster_github_com__dragonflyoss__Dragonfly__supernode__daemon__mgr__preheat</title>
<polygon fill="none" stroke="#000000" points="597.1009,-8 597.1009,-98 1876.4452,-98 1876.4452,-8 597.1009,-8"/>
<text text-anchor="middle" x="1236.7731" y="-82.8" font-family="Times,serif" font-size="14.00" fill="#000000">preheat</text>
<text text-anchor="middle" x="1236.7731" y="-67.8" font-family="Times,serif" font-size="14.00" fill="#000000">(github.com/dragonflyoss/Dragonfly/supernode/daemon/mgr/preheat)</text>
</g>
<g id="clust3" class="cluster">
<title>cluster_github_com__dragonflyoss__Dragonfly__supernode__daemon__mgr__task</title>
<polygon fill="none" stroke="#000000" points="597.1009,-170 597.1009,-260 1289.9441,-260 1289.9441,-170 597.1009,-170"/>
<text text-anchor="middle" x="943.5225" y="-244.8" font-family="Times,serif" font-size="14.00" fill="#000000">task</text>
<text text-anchor="middle" x="943.5225" y="-229.8" font-family="Times,serif" font-size="14.00" fill="#000000">(github.com/dragonflyoss/Dragonfly/supernode/daemon/mgr/task)</text>
</g>
<g id="clust4" class="cluster">
<title>cluster_github_com__dragonflyoss__Dragonfly__supernode__server</title>
<polygon fill="none" stroke="#000000" points="8,-366 8,-888 1825.0998,-888 1825.0998,-366 8,-366"/>
<text text-anchor="middle" x="916.5499" y="-872.8" font-family="Times,serif" font-size="14.00" fill="#000000">server</text>
<text text-anchor="middle" x="916.5499" y="-857.8" font-family="Times,serif" font-size="14.00" fill="#000000">(github.com/dragonflyoss/Dragonfly/supernode/server)</text>
</g>
<g id="clust5" class="cluster">
<title>cluster_github_com__dragonflyoss__Dragonfly__supernode__server__api</title>
<polygon fill="none" stroke="#000000" points="1348.2907,-106 1348.2907,-358 2208.8189,-358 2208.8189,-106 1348.2907,-106"/>
<text text-anchor="middle" x="1778.5548" y="-342.8" font-family="Times,serif" font-size="14.00" fill="#000000">api</text>
<text text-anchor="middle" x="1778.5548" y="-327.8" font-family="Times,serif" font-size="14.00" fill="#000000">(github.com/dragonflyoss/Dragonfly/supernode/server/api)</text>
</g>
<!-- github.com/dragonflyoss/Dragonfly/supernode/server#server#EncodeResponse# -->
<g id="node1" class="node">
<title>github.com/dragonflyoss/Dragonfly/supernode/server#server#EncodeResponse#</title>
<ellipse fill="#ffe6cc" stroke="#d79b00" cx="130.3899" cy="-662" rx="89.8845" ry="18"/>
<text text-anchor="middle" x="130.3899" y="-658.3" font-family="Times,serif" font-size="14.00" fill="#000000">EncodeResponse</text>
</g>
<!-- github.com/dragonflyoss/Dragonfly/supernode/server/api#api#SendResponse# -->
<g id="node2" class="node">
<title>github.com/dragonflyoss/Dragonfly/supernode/server/api#api#SendResponse#</title>
<ellipse fill="#d5e8d4" stroke="#82b366" cx="1727.4077" cy="-186" rx="78.7863" ry="18"/>
<text text-anchor="middle" x="1727.4077" y="-182.3" font-family="Times,serif" font-size="14.00" fill="#000000">SendResponse</text>
</g>
<!-- github.com/dragonflyoss/Dragonfly/supernode/server#server#EncodeResponse#&#45;&gt;github.com/dragonflyoss/Dragonfly/supernode/server/api#api#SendResponse# -->
<g id="edge1" class="edge">
<title>github.com/dragonflyoss/Dragonfly/supernode/server#server#EncodeResponse#&#45;&gt;github.com/dragonflyoss/Dragonfly/supernode/server/api#api#SendResponse#</title>
<path fill="none" stroke="#82b366" d="M212.2998,-654.5996C224.4188,-650.3309 235.8212,-644.0768 244.7797,-635 296.59,-582.5053 225.1304,-521.4062 280.7797,-473 455.6261,-320.911 1150.2247,-547.4163 1320.2907,-390 1378.7399,-335.8983 1289.6099,-266.8505 1348.2907,-213 1389.6112,-175.0807 1543.2099,-175.6141 1641.7629,-180.2534"/>
<polygon fill="#82b366" stroke="#82b366" points="1641.8512,-183.762 1652.0118,-180.7599 1642.1967,-176.7705 1641.8512,-183.762"/>
</g>
<!-- github.com/dragonflyoss/Dragonfly/supernode/server/api#api#Range#*github.com/dragonflyoss/Dragonfly/supernode/server/api.category -->
<g id="node3" class="node">
<title>github.com/dragonflyoss/Dragonfly/supernode/server/api#api#Range#*github.com/dragonflyoss/Dragonfly/supernode/server/api.category</title>
<ellipse fill="#d5e8d4" stroke="#82b366" cx="1727.4077" cy="-240" rx="360.9361" ry="18"/>
<text text-anchor="middle" x="1727.4077" y="-236.3" font-family="Times,serif" font-size="14.00" fill="#000000">(*github.com/dragonflyoss/Dragonfly/supernode/server/api.category)Range</text>
</g>
<!-- github.com/dragonflyoss/Dragonfly/supernode/server#server#initAPIRoutes$1# -->
<g id="node4" class="node">
<title>github.com/dragonflyoss/Dragonfly/supernode/server#server#initAPIRoutes$1#</title>
<ellipse fill="#d5e8d4" stroke="#82b366" cx="130.3899" cy="-608" rx="87.1846" ry="18"/>
<text text-anchor="middle" x="130.3899" y="-604.3" font-family="Times,serif" font-size="14.00" fill="#000000">initAPIRoutes$1</text>
</g>
<!-- github.com/dragonflyoss/Dragonfly/supernode/server/api#api#Range#*github.com/dragonflyoss/Dragonfly/supernode/server/api.category&#45;&gt;github.com/dragonflyoss/Dragonfly/supernode/server#server#initAPIRoutes$1# -->
<g id="edge2" class="edge">
<title>github.com/dragonflyoss/Dragonfly/supernode/server/api#api#Range#*github.com/dragonflyoss/Dragonfly/supernode/server/api.category&#45;&gt;github.com/dragonflyoss/Dragonfly/supernode/server#server#initAPIRoutes$1#</title>
<path fill="none" stroke="#82b366" d="M1394.1817,-246.97C1374.2478,-251.9229 1358.2446,-258.461 1348.2907,-267 1305.7376,-303.5041 1362.6867,-353.3137 1320.2907,-390 1145.0525,-541.6374 463.2293,-330.1207 280.7797,-473 240.9446,-504.1955 282.1293,-546.8678 244.7797,-581 237.3801,-587.7622 228.6082,-592.9233 219.2631,-596.8489"/>
<polygon fill="#82b366" stroke="#82b366" points="217.9144,-593.6161 209.7565,-600.3762 220.3495,-600.1789 217.9144,-593.6161"/>
</g>
<!-- github.com/dragonflyoss/Dragonfly/supernode/server/api#api#WrapHandler# -->
<g id="node14" class="node">
<title>github.com/dragonflyoss/Dragonfly/supernode/server/api#api#WrapHandler#</title>
<ellipse fill="#d5e8d4" stroke="#82b366" cx="1727.4077" cy="-132" rx="73.387" ry="18"/>
<text text-anchor="middle" x="1727.4077" y="-128.3" font-family="Times,serif" font-size="14.00" fill="#000000">WrapHandler</text>
</g>
<!-- github.com/dragonflyoss/Dragonfly/supernode/server#server#initAPIRoutes$1#&#45;&gt;github.com/dragonflyoss/Dragonfly/supernode/server/api#api#WrapHandler# -->
<g id="edge10" class="edge">
<title>github.com/dragonflyoss/Dragonfly/supernode/server#server#initAPIRoutes$1#&#45;&gt;github.com/dragonflyoss/Dragonfly/supernode/server/api#api#WrapHandler#</title>
<path fill="none" stroke="#82b366" d="M211.1646,-601.0332C223.7136,-596.7549 235.5526,-590.3851 244.7797,-581 297.4016,-527.477 223.9502,-465.0325 280.7797,-416 347.8586,-358.1243 989.9439,-381.7542 1076.3091,-362 1190.224,-335.9444 1242.8227,-351.4884 1320.2907,-264 1352.3085,-227.8407 1311.0613,-189.7672 1348.2907,-159 1438.2553,-84.6512 1584.8788,-100.1504 1666.9238,-116.8347"/>
<polygon fill="#82b366" stroke="#82b366" points="1666.3376,-120.2879 1676.844,-118.9221 1667.779,-113.4379 1666.3376,-120.2879"/>
</g>
<!-- github.com/dragonflyoss/Dragonfly/supernode/server#server#instrumentHandler#*github.com/dragonflyoss/Dragonfly/supernode/server.metrics -->
<g id="node15" class="node">
<title>github.com/dragonflyoss/Dragonfly/supernode/server#server#instrumentHandler#*github.com/dragonflyoss/Dragonfly/supernode/server.metrics</title>
<ellipse fill="#dae8fc" stroke="#000000" cx="678.5444" cy="-500" rx="397.5296" ry="18"/>
<text text-anchor="middle" x="678.5444" y="-496.3" font-family="Times,serif" font-size="14.00" fill="#000000">(*github.com/dragonflyoss/Dragonfly/supernode/server.metrics)instrumentHandler</text>
</g>
<!-- github.com/dragonflyoss/Dragonfly/supernode/server#server#initAPIRoutes$1#&#45;&gt;github.com/dragonflyoss/Dragonfly/supernode/server#server#instrumentHandler#*github.com/dragonflyoss/Dragonfly/supernode/server.metrics -->
<g id="edge11" class="edge">
<title>github.com/dragonflyoss/Dragonfly/supernode/server#server#initAPIRoutes$1#&#45;&gt;github.com/dragonflyoss/Dragonfly/supernode/server#server#instrumentHandler#*github.com/dragonflyoss/Dragonfly/supernode/server.metrics</title>
<path fill="none" stroke="#82b366" d="M205.5221,-598.7746C219.3804,-594.7812 233.1339,-589.0926 244.7797,-581 268.4666,-564.54 255.8241,-541.4643 280.7797,-527 364.9386,-478.2215 476.5705,-474.8621 560.1484,-481.7546"/>
<polygon fill="#82b366" stroke="#82b366" points="559.9285,-485.2487 570.198,-482.6436 560.5454,-478.2759 559.9285,-485.2487"/>
</g>
<!-- github.com/dragonflyoss/Dragonfly/supernode/server#server#createRouter# -->
<g id="node5" class="node">
<title>github.com/dragonflyoss/Dragonfly/supernode/server#server#createRouter#</title>
<ellipse fill="#d5e8d4" stroke="#82b366" cx="130.3899" cy="-824" rx="72.2875" ry="18"/>
<text text-anchor="middle" x="130.3899" y="-820.3" font-family="Times,serif" font-size="14.00" fill="#000000">createRouter</text>
</g>
<!-- github.com/dragonflyoss/Dragonfly/supernode/server#server#registerCoreHandlers# -->
<g id="node6" class="node">
<title>github.com/dragonflyoss/Dragonfly/supernode/server#server#registerCoreHandlers#</title>
<ellipse fill="#d5e8d4" stroke="#82b366" cx="678.5444" cy="-770" rx="113.18" ry="18"/>
<text text-anchor="middle" x="678.5444" y="-766.3" font-family="Times,serif" font-size="14.00" fill="#000000">registerCoreHandlers</text>
</g>
<!-- github.com/dragonflyoss/Dragonfly/supernode/server#server#createRouter#&#45;&gt;github.com/dragonflyoss/Dragonfly/supernode/server#server#registerCoreHandlers# -->
<g id="edge3" class="edge">
<title>github.com/dragonflyoss/Dragonfly/supernode/server#server#createRouter#&#45;&gt;github.com/dragonflyoss/Dragonfly/supernode/server#server#registerCoreHandlers#</title>
<path fill="none" stroke="#82b366" d="M186.2301,-812.4666C214.4595,-807.021 249.3185,-800.88 280.7797,-797 373.6667,-785.5445 479.4001,-778.6577 558.4951,-774.7093"/>
<polygon fill="#82b366" stroke="#82b366" points="558.6781,-778.2047 568.4945,-774.2187 558.335,-771.2131 558.6781,-778.2047"/>
</g>
<!-- github.com/dragonflyoss/Dragonfly/supernode/server#server#initAPIRoutes# -->
<g id="node7" class="node">
<title>github.com/dragonflyoss/Dragonfly/supernode/server#server#initAPIRoutes#</title>
<ellipse fill="#d5e8d4" stroke="#82b366" cx="678.5444" cy="-716" rx="75.2868" ry="18"/>
<text text-anchor="middle" x="678.5444" y="-712.3" font-family="Times,serif" font-size="14.00" fill="#000000">initAPIRoutes</text>
</g>
<!-- github.com/dragonflyoss/Dragonfly/supernode/server#server#createRouter#&#45;&gt;github.com/dragonflyoss/Dragonfly/supernode/server#server#initAPIRoutes# -->
<g id="edge4" class="edge">
<title>github.com/dragonflyoss/Dragonfly/supernode/server#server#createRouter#&#45;&gt;github.com/dragonflyoss/Dragonfly/supernode/server#server#initAPIRoutes#</title>
<path fill="none" stroke="#82b366" d="M197.1508,-816.9873C213.754,-812.9755 230.788,-806.7228 244.7797,-797 268.4666,-780.54 255.8241,-757.4643 280.7797,-743 383.0652,-683.7153 525.9326,-691.522 609.6935,-703.2835"/>
<polygon fill="#82b366" stroke="#82b366" points="609.2073,-706.7496 619.6085,-704.7332 610.2201,-699.8232 609.2073,-706.7496"/>
</g>
<!-- github.com/dragonflyoss/Dragonfly/supernode/server#server#initDebugRoutes# -->
<g id="node8" class="node">
<title>github.com/dragonflyoss/Dragonfly/supernode/server#server#initDebugRoutes#</title>
<ellipse fill="#d5e8d4" stroke="#82b366" cx="678.5444" cy="-824" rx="89.0842" ry="18"/>
<text text-anchor="middle" x="678.5444" y="-820.3" font-family="Times,serif" font-size="14.00" fill="#000000">initDebugRoutes</text>
</g>
<!-- github.com/dragonflyoss/Dragonfly/supernode/server#server#createRouter#&#45;&gt;github.com/dragonflyoss/Dragonfly/supernode/server#server#initDebugRoutes# -->
<g id="edge5" class="edge">
<title>github.com/dragonflyoss/Dragonfly/supernode/server#server#createRouter#&#45;&gt;github.com/dragonflyoss/Dragonfly/supernode/server#server#initDebugRoutes#</title>
<path fill="none" stroke="#82b366" d="M202.6152,-824C299.0745,-824 470.3844,-824 579.0237,-824"/>
<polygon fill="#82b366" stroke="#82b366" points="579.337,-827.5001 589.3369,-824 579.3369,-820.5001 579.337,-827.5001"/>
</g>
<!-- github.com/dragonflyoss/Dragonfly/supernode/server#server#registerLegacy# -->
<g id="node11" class="node">
<title>github.com/dragonflyoss/Dragonfly/supernode/server#server#registerLegacy#</title>
<ellipse fill="#d5e8d4" stroke="#82b366" cx="1216.2999" cy="-700" rx="81.4863" ry="18"/>
<text text-anchor="middle" x="1216.2999" y="-696.3" font-family="Times,serif" font-size="14.00" fill="#000000">registerLegacy</text>
</g>
<!-- github.com/dragonflyoss/Dragonfly/supernode/server#server#registerCoreHandlers#&#45;&gt;github.com/dragonflyoss/Dragonfly/supernode/server#server#registerLegacy# -->
<g id="edge7" class="edge">
<title>github.com/dragonflyoss/Dragonfly/supernode/server#server#registerCoreHandlers#&#45;&gt;github.com/dragonflyoss/Dragonfly/supernode/server#server#registerLegacy#</title>
<path fill="none" stroke="#82b366" d="M790.3151,-772.7631C870.9313,-772.2676 981.7508,-766.4409 1076.3091,-743 1093.3038,-738.787 1095.7799,-732.7751 1112.3091,-727 1124.2583,-722.8251 1137.1795,-718.9664 1149.7179,-715.5496"/>
<polygon fill="#82b366" stroke="#82b366" points="1150.8995,-718.8571 1159.6654,-712.9065 1149.1019,-712.0919 1150.8995,-718.8571"/>
</g>
<!-- github.com/dragonflyoss/Dragonfly/supernode/server#server#registerSystem# -->
<g id="node12" class="node">
<title>github.com/dragonflyoss/Dragonfly/supernode/server#server#registerSystem#</title>
<ellipse fill="#d5e8d4" stroke="#82b366" cx="1216.2999" cy="-631" rx="82.5854" ry="18"/>
<text text-anchor="middle" x="1216.2999" y="-627.3" font-family="Times,serif" font-size="14.00" fill="#000000">registerSystem</text>
</g>
<!-- github.com/dragonflyoss/Dragonfly/supernode/server#server#registerCoreHandlers#&#45;&gt;github.com/dragonflyoss/Dragonfly/supernode/server#server#registerSystem# -->
<g id="edge8" class="edge">
<title>github.com/dragonflyoss/Dragonfly/supernode/server#server#registerCoreHandlers#&#45;&gt;github.com/dragonflyoss/Dragonfly/supernode/server#server#registerSystem#</title>
<path fill="none" stroke="#82b366" d="M747.16,-784.3773C831.9005,-798.1496 976.9889,-808.3245 1076.3091,-743 1105.538,-723.7757 1086.47,-696.5848 1112.3091,-673 1123.8111,-662.5015 1138.2765,-654.4634 1152.7309,-648.3731"/>
<polygon fill="#82b366" stroke="#82b366" points="1154.1744,-651.5663 1162.1967,-644.6458 1151.6097,-645.0531 1154.1744,-651.5663"/>
</g>
<!-- github.com/dragonflyoss/Dragonfly/supernode/server#server#registerV1# -->
<g id="node13" class="node">
<title>github.com/dragonflyoss/Dragonfly/supernode/server#server#registerV1#</title>
<ellipse fill="#d5e8d4" stroke="#82b366" cx="1216.2999" cy="-754" rx="60.3893" ry="18"/>
<text text-anchor="middle" x="1216.2999" y="-750.3" font-family="Times,serif" font-size="14.00" fill="#000000">registerV1</text>
</g>
<!-- github.com/dragonflyoss/Dragonfly/supernode/server#server#registerCoreHandlers#&#45;&gt;github.com/dragonflyoss/Dragonfly/supernode/server#server#registerV1# -->
<g id="edge9" class="edge">
<title>github.com/dragonflyoss/Dragonfly/supernode/server#server#registerCoreHandlers#&#45;&gt;github.com/dragonflyoss/Dragonfly/supernode/server#server#registerV1#</title>
<path fill="none" stroke="#82b366" d="M789.9677,-766.6848C896.9046,-763.5031 1055.1461,-758.7949 1145.7398,-756.0994"/>
<polygon fill="#82b366" stroke="#82b366" points="1146.0144,-759.5929 1155.9058,-755.7969 1145.8061,-752.596 1146.0144,-759.5929"/>
</g>
<!-- github.com/dragonflyoss/Dragonfly/supernode/server#server#initAPIRoutes#&#45;&gt;github.com/dragonflyoss/Dragonfly/supernode/server/api#api#Range#*github.com/dragonflyoss/Dragonfly/supernode/server/api.category -->
<g id="edge13" class="edge">
<title>github.com/dragonflyoss/Dragonfly/supernode/server#server#initAPIRoutes#&#45;&gt;github.com/dragonflyoss/Dragonfly/supernode/server/api#api#Range#*github.com/dragonflyoss/Dragonfly/supernode/server/api.category</title>
<path fill="none" stroke="#82b366" d="M732.3012,-728.6591C814.6488,-744.7579 973.2855,-762.39 1076.3091,-689 1109.724,-665.1965 1086.0531,-635.5243 1112.3091,-604 1183.1475,-518.948 1261.1472,-560.5626 1320.2907,-467 1368.2494,-391.1313 1282.703,-328.2728 1348.2907,-267 1355.9048,-259.8868 1367.4102,-254.1177 1381.7309,-249.4694"/>
<polygon fill="#82b366" stroke="#82b366" points="1382.9364,-252.7629 1391.5356,-246.5738 1380.9537,-246.0496 1382.9364,-252.7629"/>
</g>
<!-- github.com/dragonflyoss/Dragonfly/supernode/daemon/mgr/task#task#NewManager# -->
<g id="node9" class="node">
<title>github.com/dragonflyoss/Dragonfly/supernode/daemon/mgr/task#task#NewManager#</title>
<ellipse fill="#fff2cd" stroke="#d7b953" cx="678.5444" cy="-196" rx="73.387" ry="18"/>
<text text-anchor="middle" x="678.5444" y="-192.3" font-family="Times,serif" font-size="14.00" fill="#000000">NewManager</text>
</g>
<!-- github.com/dragonflyoss/Dragonfly/supernode/daemon/mgr/task#task#newMetrics# -->
<g id="node10" class="node">
<title>github.com/dragonflyoss/Dragonfly/supernode/daemon/mgr/task#task#newMetrics#</title>
<ellipse fill="#ffe6cc" stroke="#d79b00" cx="1216.2999" cy="-196" rx="65.7887" ry="18"/>
<text text-anchor="middle" x="1216.2999" y="-192.3" font-family="Times,serif" font-size="14.00" fill="#000000">newMetrics</text>
</g>
<!-- github.com/dragonflyoss/Dragonfly/supernode/daemon/mgr/task#task#NewManager#&#45;&gt;github.com/dragonflyoss/Dragonfly/supernode/daemon/mgr/task#task#newMetrics# -->
<g id="edge6" class="edge">
<title>github.com/dragonflyoss/Dragonfly/supernode/daemon/mgr/task#task#NewManager#&#45;&gt;github.com/dragonflyoss/Dragonfly/supernode/daemon/mgr/task#task#newMetrics#</title>
<path fill="none" stroke="#d79b00" d="M752.1895,-196C854.0772,-196 1037.1134,-196 1140.2568,-196"/>
<polygon fill="#d79b00" stroke="#d79b00" points="1140.289,-199.5001 1150.289,-196 1140.2889,-192.5001 1140.289,-199.5001"/>
</g>
<!-- github.com/dragonflyoss/Dragonfly/supernode/server/api#api#Register#*github.com/dragonflyoss/Dragonfly/supernode/server/api.category -->
<g id="node20" class="node">
<title>github.com/dragonflyoss/Dragonfly/supernode/server/api#api#Register#*github.com/dragonflyoss/Dragonfly/supernode/server/api.category</title>
<ellipse fill="#d5e8d4" stroke="#82b366" cx="1727.4077" cy="-294" rx="371.2342" ry="18"/>
<text text-anchor="middle" x="1727.4077" y="-290.3" font-family="Times,serif" font-size="14.00" fill="#000000">(*github.com/dragonflyoss/Dragonfly/supernode/server/api.category)Register</text>
</g>
<!-- github.com/dragonflyoss/Dragonfly/supernode/server#server#registerLegacy#&#45;&gt;github.com/dragonflyoss/Dragonfly/supernode/server/api#api#Register#*github.com/dragonflyoss/Dragonfly/supernode/server/api.category -->
<g id="edge19" class="edge">
<title>github.com/dragonflyoss/Dragonfly/supernode/server#server#registerLegacy#&#45;&gt;github.com/dragonflyoss/Dragonfly/supernode/server/api#api#Register#*github.com/dragonflyoss/Dragonfly/supernode/server/api.category</title>
<path fill="none" stroke="#82b366" d="M1276.7421,-687.954C1293.3208,-681.7218 1309.6421,-672.2833 1320.2907,-658 1359.7816,-605.0293 1303.5536,-410.6213 1348.2907,-362 1369.9442,-338.4665 1396.7383,-321.3525 1425.9965,-309.081"/>
<polygon fill="#82b366" stroke="#82b366" points="1427.5837,-312.2163 1435.5792,-305.2648 1424.9938,-305.713 1427.5837,-312.2163"/>
</g>
<!-- github.com/dragonflyoss/Dragonfly/supernode/server#server#preheatHandlers# -->
<g id="node24" class="node">
<title>github.com/dragonflyoss/Dragonfly/supernode/server#server#preheatHandlers#</title>
<ellipse fill="#d5e8d4" stroke="#82b366" cx="1727.4077" cy="-727" rx="89.8845" ry="18"/>
<text text-anchor="middle" x="1727.4077" y="-723.3" font-family="Times,serif" font-size="14.00" fill="#000000">preheatHandlers</text>
</g>
<!-- github.com/dragonflyoss/Dragonfly/supernode/server#server#registerLegacy#&#45;&gt;github.com/dragonflyoss/Dragonfly/supernode/server#server#preheatHandlers# -->
<g id="edge20" class="edge">
<title>github.com/dragonflyoss/Dragonfly/supernode/server#server#registerLegacy#&#45;&gt;github.com/dragonflyoss/Dragonfly/supernode/server#server#preheatHandlers#</title>
<path fill="none" stroke="#82b366" d="M1295.5997,-704.1891C1385.9143,-708.9601 1533.4916,-716.7561 1630.5394,-721.8828"/>
<polygon fill="#82b366" stroke="#82b366" points="1630.4774,-725.3843 1640.6482,-722.4168 1630.8468,-718.3941 1630.4774,-725.3843"/>
</g>
<!-- github.com/dragonflyoss/Dragonfly/supernode/server#server#registerSystem#&#45;&gt;github.com/dragonflyoss/Dragonfly/supernode/server/api#api#Register#*github.com/dragonflyoss/Dragonfly/supernode/server/api.category -->
<g id="edge16" class="edge">
<title>github.com/dragonflyoss/Dragonfly/supernode/server#server#registerSystem#&#45;&gt;github.com/dragonflyoss/Dragonfly/supernode/server/api#api#Register#*github.com/dragonflyoss/Dragonfly/supernode/server/api.category</title>
<path fill="none" stroke="#82b366" d="M1243.6791,-613.8807C1267.96,-597.1433 1302.284,-569.3523 1320.2907,-536 1357.5025,-467.0755 1293.4029,-417.8806 1348.2907,-362 1371.5403,-338.3298 1400.0192,-321.2806 1430.8268,-309.175"/>
<polygon fill="#82b366" stroke="#82b366" points="1432.3175,-312.3543 1440.4594,-305.5749 1429.8669,-305.7973 1432.3175,-312.3543"/>
</g>
<!-- github.com/dragonflyoss/Dragonfly/supernode/server#server#registerV1#&#45;&gt;github.com/dragonflyoss/Dragonfly/supernode/server/api#api#Register#*github.com/dragonflyoss/Dragonfly/supernode/server/api.category -->
<g id="edge24" class="edge">
<title>github.com/dragonflyoss/Dragonfly/supernode/server#server#registerV1#&#45;&gt;github.com/dragonflyoss/Dragonfly/supernode/server/api#api#Register#*github.com/dragonflyoss/Dragonfly/supernode/server/api.category</title>
<path fill="none" stroke="#82b366" d="M1276.0955,-751.1596C1292.7522,-747.3506 1309.2795,-740.1618 1320.2907,-727 1372.4896,-664.6061 1293.7423,-422.3507 1348.2907,-362 1369.5321,-338.499 1395.8945,-321.3672 1424.7552,-309.0521"/>
<polygon fill="#82b366" stroke="#82b366" points="1426.2564,-312.2203 1434.21,-305.221 1423.6275,-305.7327 1426.2564,-312.2203"/>
</g>
<!-- github.com/dragonflyoss/Dragonfly/supernode/server#server#registerV1#&#45;&gt;github.com/dragonflyoss/Dragonfly/supernode/server#server#preheatHandlers# -->
<g id="edge25" class="edge">
<title>github.com/dragonflyoss/Dragonfly/supernode/server#server#registerV1#&#45;&gt;github.com/dragonflyoss/Dragonfly/supernode/server#server#preheatHandlers#</title>
<path fill="none" stroke="#82b366" d="M1275.9307,-750.8499C1362.9597,-746.2525 1525.7502,-737.6528 1630.2324,-732.1334"/>
<polygon fill="#82b366" stroke="#82b366" points="1630.6698,-735.6153 1640.4712,-731.5925 1630.3004,-728.625 1630.6698,-735.6153"/>
</g>
<!-- github.com/dragonflyoss/Dragonfly/supernode/daemon/mgr/preheat#preheat#NewManager# -->
<g id="node16" class="node">
<title>github.com/dragonflyoss/Dragonfly/supernode/daemon/mgr/preheat#preheat#NewManager#</title>
<ellipse fill="#d5e8d4" stroke="#82b366" cx="678.5444" cy="-34" rx="73.387" ry="18"/>
<text text-anchor="middle" x="678.5444" y="-30.3" font-family="Times,serif" font-size="14.00" fill="#000000">NewManager</text>
</g>
<!-- github.com/dragonflyoss/Dragonfly/supernode/daemon/mgr/preheat#preheat#NewPreheatService# -->
<g id="node17" class="node">
<title>github.com/dragonflyoss/Dragonfly/supernode/daemon/mgr/preheat#preheat#NewPreheatService#</title>
<ellipse fill="#d5e8d4" stroke="#82b366" cx="1216.2999" cy="-34" rx="103.9815" ry="18"/>
<text text-anchor="middle" x="1216.2999" y="-30.3" font-family="Times,serif" font-size="14.00" fill="#000000">NewPreheatService</text>
</g>
<!-- github.com/dragonflyoss/Dragonfly/supernode/daemon/mgr/preheat#preheat#NewManager#&#45;&gt;github.com/dragonflyoss/Dragonfly/supernode/daemon/mgr/preheat#preheat#NewPreheatService# -->
<g id="edge12" class="edge">
<title>github.com/dragonflyoss/Dragonfly/supernode/daemon/mgr/preheat#preheat#NewManager#&#45;&gt;github.com/dragonflyoss/Dragonfly/supernode/daemon/mgr/preheat#preheat#NewPreheatService#</title>
<path fill="none" stroke="#82b366" d="M752.1895,-34C842.4762,-34 996.4841,-34 1102.1552,-34"/>
<polygon fill="#82b366" stroke="#82b366" points="1102.2269,-37.5001 1112.2268,-34 1102.2268,-30.5001 1102.2269,-37.5001"/>
</g>
<!-- github.com/dragonflyoss/Dragonfly/supernode/daemon/mgr/preheat#preheat#NewPreheatTaskRepository# -->
<g id="node21" class="node">
<title>github.com/dragonflyoss/Dragonfly/supernode/daemon/mgr/preheat#preheat#NewPreheatTaskRepository#</title>
<ellipse fill="#d5e8d4" stroke="#82b366" cx="1727.4077" cy="-34" rx="141.075" ry="18"/>
<text text-anchor="middle" x="1727.4077" y="-30.3" font-family="Times,serif" font-size="14.00" fill="#000000">NewPreheatTaskRepository</text>
</g>
<!-- github.com/dragonflyoss/Dragonfly/supernode/daemon/mgr/preheat#preheat#NewPreheatService#&#45;&gt;github.com/dragonflyoss/Dragonfly/supernode/daemon/mgr/preheat#preheat#NewPreheatTaskRepository# -->
<g id="edge17" class="edge">
<title>github.com/dragonflyoss/Dragonfly/supernode/daemon/mgr/preheat#preheat#NewPreheatService#&#45;&gt;github.com/dragonflyoss/Dragonfly/supernode/daemon/mgr/preheat#preheat#NewPreheatTaskRepository#</title>
<path fill="none" stroke="#82b366" d="M1320.3462,-34C1393.8959,-34 1493.6501,-34 1575.9989,-34"/>
<polygon fill="#82b366" stroke="#82b366" points="1576.209,-37.5001 1586.209,-34 1576.209,-30.5001 1576.209,-37.5001"/>
</g>
<!-- github.com/dragonflyoss/Dragonfly/supernode/server#server#initRoute# -->
<g id="node18" class="node">
<title>github.com/dragonflyoss/Dragonfly/supernode/server#server#initRoute#</title>
<ellipse fill="#f8cecc" stroke="#b85450" cx="130.3899" cy="-716" rx="53.8905" ry="18"/>
<text text-anchor="middle" x="130.3899" y="-712.3" font-family="Times,serif" font-size="14.00" fill="#000000">initRoute</text>
</g>
<!-- github.com/dragonflyoss/Dragonfly/supernode/server#server#initRoute#&#45;&gt;github.com/dragonflyoss/Dragonfly/supernode/server#server#instrumentHandler#*github.com/dragonflyoss/Dragonfly/supernode/server.metrics -->
<g id="edge14" class="edge">
<title>github.com/dragonflyoss/Dragonfly/supernode/server#server#initRoute#&#45;&gt;github.com/dragonflyoss/Dragonfly/supernode/server#server#instrumentHandler#*github.com/dragonflyoss/Dragonfly/supernode/server.metrics</title>
<path fill="none" stroke="#b85450" stroke-dasharray="5,2" d="M184.4781,-715.2173C205.8876,-712.1409 229.0844,-704.9026 244.7797,-689 296.59,-636.5053 224.8434,-575.0742 280.7797,-527 368.4743,-451.6314 511.1072,-463.1331 599.6285,-480.2217"/>
<polygon fill="#b85450" stroke="#b85450" points="599.1238,-483.69 609.6158,-482.2177 600.4957,-476.8257 599.1238,-483.69"/>
</g>
<!-- github.com/dragonflyoss/Dragonfly/supernode/server#server#filter# -->
<g id="node19" class="node">
<title>github.com/dragonflyoss/Dragonfly/supernode/server#server#filter#</title>
<ellipse fill="#f8cecc" stroke="#b85450" cx="678.5444" cy="-554" rx="33.5952" ry="18"/>
<text text-anchor="middle" x="678.5444" y="-550.3" font-family="Times,serif" font-size="14.00" fill="#000000">filter</text>
</g>
<!-- github.com/dragonflyoss/Dragonfly/supernode/server#server#initRoute#&#45;&gt;github.com/dragonflyoss/Dragonfly/supernode/server#server#filter# -->
<g id="edge15" class="edge">
<title>github.com/dragonflyoss/Dragonfly/supernode/server#server#initRoute#&#45;&gt;github.com/dragonflyoss/Dragonfly/supernode/server#server#filter#</title>
<path fill="none" stroke="#b85450" stroke-dasharray="5,2" d="M184.2772,-714.3132C205.399,-711.0605 228.4366,-703.9352 244.7797,-689 282.1293,-654.8678 240.7596,-611.958 280.7797,-581 334.9447,-539.1001 543.0189,-545.8419 634.7149,-551.0635"/>
<polygon fill="#b85450" stroke="#b85450" points="634.5938,-554.5623 644.7826,-551.6575 635.0062,-547.5745 634.5938,-554.5623"/>
</g>
<!-- github.com/dragonflyoss/Dragonfly/supernode/server/api#api#valid# -->
<g id="node25" class="node">
<title>github.com/dragonflyoss/Dragonfly/supernode/server/api#api#valid#</title>
<ellipse fill="#d5e8d4" stroke="#82b366" cx="2167.6719" cy="-294" rx="33.2948" ry="18"/>
<text text-anchor="middle" x="2167.6719" y="-290.3" font-family="Times,serif" font-size="14.00" fill="#000000">valid</text>
</g>
<!-- github.com/dragonflyoss/Dragonfly/supernode/server/api#api#Register#*github.com/dragonflyoss/Dragonfly/supernode/server/api.category&#45;&gt;github.com/dragonflyoss/Dragonfly/supernode/server/api#api#valid# -->
<g id="edge21" class="edge">
<title>github.com/dragonflyoss/Dragonfly/supernode/server/api#api#Register#*github.com/dragonflyoss/Dragonfly/supernode/server/api.category&#45;&gt;github.com/dragonflyoss/Dragonfly/supernode/server/api#api#valid#</title>
<path fill="none" stroke="#82b366" d="M2098.8806,-294C2107.9762,-294 2116.4037,-294 2124.0158,-294"/>
<polygon fill="#82b366" stroke="#82b366" points="2124.2192,-297.5001 2134.2191,-294 2124.2191,-290.5001 2124.2192,-297.5001"/>
</g>
<!-- github.com/dragonflyoss/Dragonfly/supernode/server#server#httpErr# -->
<g id="node22" class="node">
<title>github.com/dragonflyoss/Dragonfly/supernode/server#server#httpErr#</title>
<ellipse fill="#d5e8d4" stroke="#82b366" cx="130.3899" cy="-554" rx="46.2923" ry="18"/>
<text text-anchor="middle" x="130.3899" y="-550.3" font-family="Times,serif" font-size="14.00" fill="#000000">httpErr</text>
</g>
<!-- github.com/dragonflyoss/Dragonfly/pkg/errortypes#errortypes#NewHTTPError# -->
<g id="node23" class="node">
<title>github.com/dragonflyoss/Dragonfly/pkg/errortypes#errortypes#NewHTTPError#</title>
<ellipse fill="#d5e8d4" stroke="#82b366" cx="678.5444" cy="-294" rx="85.2851" ry="18"/>
<text text-anchor="middle" x="678.5444" y="-290.3" font-family="Times,serif" font-size="14.00" fill="#000000">NewHTTPError</text>
</g>
<!-- github.com/dragonflyoss/Dragonfly/supernode/server#server#httpErr#&#45;&gt;github.com/dragonflyoss/Dragonfly/pkg/errortypes#errortypes#NewHTTPError# -->
<g id="edge18" class="edge">
<title>github.com/dragonflyoss/Dragonfly/supernode/server#server#httpErr#&#45;&gt;github.com/dragonflyoss/Dragonfly/pkg/errortypes#errortypes#NewHTTPError#</title>
<path fill="none" stroke="#82b366" d="M176.6863,-554.2014C200.0896,-551.8292 227.1839,-544.8971 244.7797,-527 297.4016,-473.477 226.5118,-413.8534 280.7797,-362 364.7911,-281.7264 506.9059,-276.9254 596.5718,-283.4972"/>
<polygon fill="#82b366" stroke="#82b366" points="596.4524,-286.9987 606.6988,-284.3041 597.0084,-280.0208 596.4524,-286.9987"/>
</g>
<!-- github.com/dragonflyoss/Dragonfly/supernode/server#server#HandleErrorResponse# -->
<g id="node26" class="node">
<title>github.com/dragonflyoss/Dragonfly/supernode/server#server#HandleErrorResponse#</title>
<ellipse fill="#f8cecc" stroke="#b85450" cx="130.3899" cy="-770" rx="114.2798" ry="18"/>
<text text-anchor="middle" x="130.3899" y="-766.3" font-family="Times,serif" font-size="14.00" fill="#000000">HandleErrorResponse</text>
</g>
<!-- github.com/dragonflyoss/Dragonfly/supernode/server#server#NewResultInfoWithError# -->
<g id="node27" class="node">
<title>github.com/dragonflyoss/Dragonfly/supernode/server#server#NewResultInfoWithError#</title>
<ellipse fill="#dae8fc" stroke="#000000" cx="678.5444" cy="-662" rx="128.0773" ry="18"/>
<text text-anchor="middle" x="678.5444" y="-658.3" font-family="Times,serif" font-size="14.00" fill="#000000">NewResultInfoWithError</text>
</g>
<!-- github.com/dragonflyoss/Dragonfly/supernode/server#server#HandleErrorResponse#&#45;&gt;github.com/dragonflyoss/Dragonfly/supernode/server#server#NewResultInfoWithError# -->
<g id="edge22" class="edge">
<title>github.com/dragonflyoss/Dragonfly/supernode/server#server#HandleErrorResponse#&#45;&gt;github.com/dragonflyoss/Dragonfly/supernode/server#server#NewResultInfoWithError#</title>
<path fill="none" stroke="#b85450" stroke-dasharray="5,2" d="M214.7563,-757.842C225.4102,-754.1243 235.7312,-749.2878 244.7797,-743 268.4666,-726.54 255.8241,-703.4643 280.7797,-689 375.0089,-634.3847 503.6792,-636.7085 588.8506,-646.6089"/>
<polygon fill="#b85450" stroke="#b85450" points="588.6659,-650.1123 599.0165,-647.8505 589.5146,-643.1639 588.6659,-650.1123"/>
</g>
<!-- github.com/dragonflyoss/Dragonfly/supernode/server#server#Error#github.com/dragonflyoss/Dragonfly/supernode/server.ResultInfo -->
<g id="node28" class="node">
<title>github.com/dragonflyoss/Dragonfly/supernode/server#server#Error#github.com/dragonflyoss/Dragonfly/supernode/server.ResultInfo</title>
<ellipse fill="#f8cecc" stroke="#b85450" cx="678.5444" cy="-608" rx="341.4396" ry="18"/>
<text text-anchor="middle" x="678.5444" y="-604.3" font-family="Times,serif" font-size="14.00" fill="#000000">(github.com/dragonflyoss/Dragonfly/supernode/server.ResultInfo)Error</text>
</g>
<!-- github.com/dragonflyoss/Dragonfly/supernode/server#server#HandleErrorResponse#&#45;&gt;github.com/dragonflyoss/Dragonfly/supernode/server#server#Error#github.com/dragonflyoss/Dragonfly/supernode/server.ResultInfo -->
<g id="edge23" class="edge">
<title>github.com/dragonflyoss/Dragonfly/supernode/server#server#HandleErrorResponse#&#45;&gt;github.com/dragonflyoss/Dragonfly/supernode/server#server#Error#github.com/dragonflyoss/Dragonfly/supernode/server.ResultInfo</title>
<path fill="none" stroke="#b85450" stroke-dasharray="5,2" d="M219.6195,-758.6985C228.8312,-754.7917 237.4743,-749.6761 244.7797,-743 282.1293,-708.8678 240.7596,-665.958 280.7797,-635 292.6286,-625.8341 311.8427,-618.996 335.5926,-613.9604"/>
<polygon fill="#b85450" stroke="#b85450" points="336.5235,-617.3445 345.6601,-611.9804 335.1726,-610.4761 336.5235,-617.3445"/>
</g>
<!-- github.com/dragonflyoss/Dragonfly/supernode/server#server#New# -->
<g id="node29" class="node">
<title>github.com/dragonflyoss/Dragonfly/supernode/server#server#New#</title>
<ellipse fill="#ffe6cc" stroke="#d79b00" cx="130.3899" cy="-500" rx="32.4942" ry="18"/>
<text text-anchor="middle" x="130.3899" y="-496.3" font-family="Times,serif" font-size="14.00" fill="#000000">New</text>
</g>
<!-- github.com/dragonflyoss/Dragonfly/supernode/server#server#New#&#45;&gt;github.com/dragonflyoss/Dragonfly/supernode/daemon/mgr/task#task#NewManager# -->
<g id="edge26" class="edge">
<title>github.com/dragonflyoss/Dragonfly/supernode/server#server#New#&#45;&gt;github.com/dragonflyoss/Dragonfly/supernode/daemon/mgr/task#task#NewManager#</title>
<path fill="none" stroke="#d79b00" d="M162.9796,-501.3916C188.8529,-500.6224 224.0191,-495.0721 244.7797,-473 309.3584,-404.3418 214.0882,-330.6077 280.7797,-264 365.9782,-178.9085 516.0723,-177.4242 605.5168,-185.6373"/>
<polygon fill="#d79b00" stroke="#d79b00" points="605.2866,-189.1314 615.5809,-186.6258 605.971,-182.1649 605.2866,-189.1314"/>
</g>
<!-- github.com/dragonflyoss/Dragonfly/supernode/server#server#New#&#45;&gt;github.com/dragonflyoss/Dragonfly/supernode/daemon/mgr/preheat#preheat#NewManager# -->
<g id="edge27" class="edge">
<title>github.com/dragonflyoss/Dragonfly/supernode/server#server#New#&#45;&gt;github.com/dragonflyoss/Dragonfly/supernode/daemon/mgr/preheat#preheat#NewManager#</title>
<path fill="none" stroke="#82b366" d="M162.7727,-501.6945C188.8826,-501.1578 224.485,-495.7753 244.7797,-473 336.1753,-370.4333 194.0174,-272.5148 280.7797,-166 357.4034,-71.932 502.9687,-44.4047 595.154,-36.6444"/>
<polygon fill="#82b366" stroke="#82b366" points="595.5929,-40.1209 605.2899,-35.8525 595.0476,-33.1421 595.5929,-40.1209"/>
</g>
<!-- github.com/dragonflyoss/Dragonfly/supernode/server#server#handleMetrics# -->
<g id="node30" class="node">
<title>github.com/dragonflyoss/Dragonfly/supernode/server#server#handleMetrics#</title>
<ellipse fill="#ffe6cc" stroke="#d79b00" cx="130.3899" cy="-446" rx="77.9862" ry="18"/>
<text text-anchor="middle" x="130.3899" y="-442.3" font-family="Times,serif" font-size="14.00" fill="#000000">handleMetrics</text>
</g>
<!-- github.com/dragonflyoss/Dragonfly/supernode/server#server#newMetrics# -->
<g id="node31" class="node">
<title>github.com/dragonflyoss/Dragonfly/supernode/server#server#newMetrics#</title>
<ellipse fill="#ffe6cc" stroke="#d79b00" cx="130.3899" cy="-392" rx="65.7887" ry="18"/>
<text text-anchor="middle" x="130.3899" y="-388.3" font-family="Times,serif" font-size="14.00" fill="#000000">newMetrics</text>
</g>
</g>
</svg>
