<?xml version="1.0" encoding="UTF-8" standalone="no"?>
<!DOCTYPE svg PUBLIC "-//W3C//DTD SVG 1.1//EN"
 "http://www.w3.org/Graphics/SVG/1.1/DTD/svg11.dtd">
<!-- Generated by graphviz version 2.40.1 (20161225.0304)
 -->
<!-- Title: G Pages: 1 -->
<svg width="707pt" height="114pt"
 viewBox="0.00 0.00 707.35 114.00" xmlns="http://www.w3.org/2000/svg" xmlns:xlink="http://www.w3.org/1999/xlink">
<g id="graph0" class="graph" transform="scale(1 1) rotate(0) translate(4 110)">
<title>G</title>
<polygon fill="#ffffff" stroke="transparent" points="-4,4 -4,-110 703.3472,-110 703.3472,4 -4,4"/>
<g id="clust1" class="cluster">
<title>cluster_calldiff</title>
<polygon fill="none" stroke="#000000" points="8,-8 8,-98 91.594,-98 91.594,-8 8,-8"/>
<text text-anchor="middle" x="49.797" y="-82.8" font-family="Times,serif" font-size="14.00" fill="#000000">main</text>
<text text-anchor="middle" x="49.797" y="-67.8" font-family="Times,serif" font-size="14.00" fill="#000000">calldiff</text>
</g>
<g id="clust2" class="cluster">
<title>cluster_calldiff__diff</title>
<polygon fill="none" stroke="#000000" points="111.594,-8 111.594,-98 691.3472,-98 691.3472,-8 111.594,-8"/>
<text text-anchor="middle" x="401.4706" y="-82.8" font-family="Times,serif" font-size="14.00" fill="#000000">diff</text>
<text text-anchor="middle" x="401.4706" y="-67.8" font-family="Times,serif" font-size="14.00" fill="#000000">calldiff/diff</text>
</g>
<!-- calldiff#main#main# -->
<g id="node1" class="node">
<title>calldiff#main#main#</title>
<ellipse fill="#fff2cd" stroke="#d7b953" cx="49.797" cy="-34" rx="33.5952" ry="18"/>
<text text-anchor="middle" x="49.797" y="-30.3" font-family="Times,serif" font-size="14.00" fill="#000000">main</text>
</g>
<!-- calldiff/diff#diff#OutputDiffGraph#*calldiff/diff.DiffGraph -->
<g id="node2" class="node">
<title>calldiff/diff#diff#OutputDiffGraph#*calldiff/diff.DiffGraph</title>
<ellipse fill="#fff2cd" stroke="#d7b953" cx="319.7762" cy="-34" rx="200.3646" ry="18"/>
<text text-anchor="middle" x="319.7762" y="-30.3" font-family="Times,serif" font-size="14.00" fill="#000000">(*calldiff/diff.DiffGraph)OutputDiffGraph</text>
</g>
<!-- calldiff#main#main#&#45;&gt;calldiff/diff#diff#OutputDiffGraph#*calldiff/diff.DiffGraph -->
<g id="edge1" class="edge">
<title>calldiff#main#main#&#45;&gt;calldiff/diff#diff#OutputDiffGraph#*calldiff/diff.DiffGraph</title>
<path fill="none" stroke="#d79b00" d="M83.7167,-34C91.3898,-34 100.0823,-34 109.4925,-34"/>
<polygon fill="#d79b00" stroke="#d79b00" points="109.5462,-37.5001 119.5462,-34 109.5461,-30.5001 109.5462,-37.5001"/>
</g>
<!-- calldiff/diff#diff#OutputJson# -->
<g id="node3" class="node">
<title>calldiff/diff#diff#OutputJson#</title>
<ellipse fill="#fff2cd" stroke="#d7b953" cx="619.6528" cy="-34" rx="63.8893" ry="18"/>
<text text-anchor="middle" x="619.6528" y="-30.3" font-family="Times,serif" font-size="14.00" fill="#000000">OutputJson</text>
</g>
<!-- calldiff/diff#diff#OutputDiffGraph#*calldiff/diff.DiffGraph&#45;&gt;calldiff/diff#diff#OutputJson# -->
<g id="edge2" class="edge">
<title>calldiff/diff#diff#OutputDiffGraph#*calldiff/diff.DiffGraph&#45;&gt;calldiff/diff#diff#OutputJson#</title>
<path fill="none" stroke="#d79b00" d="M520.2148,-34C529.0226,-34 537.5671,-34 545.7056,-34"/>
<polygon fill="#d79b00" stroke="#d79b00" points="545.7865,-37.5001 555.7865,-34 545.7864,-30.5001 545.7865,-37.5001"/>
</g>
</g>
</svg>
